<svg xmlns="http://www.w3.org/2000/svg" viewBox="0 0 31 31"><path d="M1 1h7v7h-7zM9 1h3v1h1v1h-2v1h-1v-1h-1zM13 1h2v2h-1v-1h-1zM16 1h1v1h-1zM18 1h4v1h-2v1h-3v-1h1zM23 1h7v7h-7zM2 2v5h5v-5zM24 2v5h5v-5zM3 3h3v3h-3zM16 3h1v1h-1zM20 3h1v4h-1v1h-1v-2h1zM25 3h3v3h-3zM9 4h1v1h-1zM11 4h3v2h-1v1h-1v-1h-1zM15 4h1v1h1v1h-2zM18 4h1v1h-1zM14 6h1v1h-1zM9 7h1v2h-1zM11 7h1v1h1v1h2v1h3v1h1v1h-2v-1h-2v1h-1v-1h-1v-1h-2zM13 7h1v1h-1zM15 7h1v1h-1zM17 7h1v1h-1zM21 7h1v3h1v-1h1v1h2v1h-2v1h1v1h-2v-1h-1v-1h-3v-1h-1v-2h1v1h1v1h1v-1h-1v-1h1zM16 8h1v1h-1zM1 9h1v2h-1zM3 9h2v1h-2zM6 9h3v1h2v1h-1v1h-3v1h-1v2h-2v1h-1v-2h2v-1h-1v-2h4v-1h-2zM26 9h1v1h-1zM28 9h2v2h-1v-1h-1zM12 11h1v1h-1zM27 11h2v1h-2zM10 12h1v3h4v1h-1v2h-1v-1h-1v-1h-2v-1h-2v-1h1v-1h1zM13 12h1v1h-1zM19 12h1v1h1v2h2v1h-1v1h1v3h-1v-1h-1v-1h-2v-2h-1v-1h2v-1h-2v1h-1v-1h-1v1h-1v-2h4zM21 12h1v1h-1zM29 12h1v1h-1zM1 13h1v1h-1zM7 13h1v1h-1zM12 13h1v1h-1zM26 13h2v1h2v2h-1v3h-1v3h2v1h-1v1h-1v-1h-1v2h-1v1h1v1h-2v1h-1v-2h-1v1h-1v-1h-1v-1h-1v-2h1v-2h6v-2h-1v-1h-1v-1h-2v-1h2v-1h1v2h1v1h1v-2h-1v-2h-1zM23 14h1v1h-1zM6 15h2v1h-1v1h-1zM4 16h1v1h-1zM8 16h2v1h-2zM15 16h3v1h-1v1h2v2h2v1h-1v1h-2v2h-1v-2h-3v-2h-1v-1h2zM20 16v1h1v-1zM2 17h1v1h-1zM5 17h1v1h1v1h5v2h-1v1h-1v-2h-3v1h-1v-1h-1v-1h-2v-1h2zM7 17h1v1h-1zM10 17h1v1h-1zM12 18h1v1h-1zM24 18h1v1h1v1h-2zM1 19h1v1h-1zM17 19v1h1v-1zM3 20h1v1h-1zM2 21h1v1h-1zM7 21h2v1h-2zM9 22h1v1h1v1h-1v1h-1zM11 22h3v2h1v-1h1v2h-4v1h-1v-2h1v-1h-1zM22 22v3h3v-3zM1 23h7v7h-7zM23 23h1v1h-1zM2 24v5h5v-5zM29 24h1v1h-1zM3 25h3v3h-3zM16 25h1v1h1v-1h1v2h2v1h1v1h1v1h-3v-2h-2v-1h-2zM27 25h1v1h-1zM9 26h2v1h-1v1h-1zM12 26h1v1h1v2h1v-2h1v2h1v1h-4v-1h-1v-1h-1v-1h1zM29 26h1v2h-1zM27 27h1v1h-1zM10 28h1v1h-1zM17 28h1v1h-1zM25 28h2v1h-2zM28 28h1v2h-1zM9 29h1v1h-1zM11 29h1v1h-1z"/></svg>